<svg xmlns="http://www.w3.org/2000/svg" height="40px" viewBox="0 -960 960 960" width="40px" fill="#FFFFFF"><path d="M106.67-226.67v-586.66V-226.67Zm746.66 80V-733.33v586.66Zm-533.45-300q-14.21 0-23.71-9.61-9.5-9.62-9.5-23.84 0-14.21 9.61-23.71 9.62-9.5 23.84-9.5 14.21 0 23.71 9.61 9.5 9.62 9.5 23.84 0 14.21-9.61 23.71-9.62 9.5-23.84 9.5Zm160 0q-14.21 0-23.71-9.61-9.5-9.62-9.5-23.84 0-14.21 9.61-23.71 9.62-9.5 23.84-9.5 14.21 0 23.71 9.61 9.5 9.62 9.5 23.84 0 14.21-9.61 23.71-9.62 9.5-23.84 9.5Zm160 0q-14.21 0-23.71-9.61-9.5-9.62-9.5-23.84 0-14.21 9.61-23.71 9.62-9.5 23.84-9.5 14.21 0 23.71 9.61 9.5 9.62 9.5 23.84 0 14.21-9.61 23.71-9.62 9.5-23.84 9.5ZM593.33-80q-27.5 0-47.08-19.58-19.58-19.59-19.58-47.09v-206.66h66.66v206.66h260v-586.66h-260v126.66h-66.66v-126.66q0-27.5 19.58-47.09Q565.83-800 593.33-800h260q27.5 0 47.09 19.58Q920-760.83 920-733.33v586.66q0 27.5-19.58 47.09Q880.83-80 853.33-80h-260Zm-486.66-80q-27.5 0-47.09-19.58Q40-199.17 40-226.67v-586.66q0-27.5 19.58-47.09Q79.17-880 106.67-880h260q27.5 0 47.08 19.58 19.58 19.59 19.58 47.09v206.66h-66.66v-206.66h-260v586.66h260v-126.66h66.66v126.66q0 27.5-19.58 47.09Q394.17-160 366.67-160h-260Zm616.66-470q9.67 0 16.5-6.83 6.84-6.84 6.84-16.5 0-9.67-6.84-16.5-6.83-6.84-16.5-6.84-9.66 0-16.5 6.84Q700-663 700-653.33q0 9.66 6.83 16.5 6.84 6.83 16.5 6.83Zm-486.66-81.33q9.66 0 16.5-6.84Q260-725 260-734.67q0-9.66-6.83-16.5-6.84-6.83-16.5-6.83-9.67 0-16.5 6.83-6.84 6.84-6.84 16.5 0 9.67 6.84 16.5 6.83 6.84 16.5 6.84Z"/></svg>